# xmcd
#
# Track frame offsets:
#	150
#	54682
#	73252
#	95734
#	115463
#	129291
#	148566
#	184549
#
# Disc length: 2812 seconds
#
# Revision: 0
# Processed by: cddbd v1.4PL0 Copyright (c) Steve Scherf et al.
# Submitted via: dBpowerAMP V4.0
#
DISCID=770afa08
DTITLE=黃品源 - 香港演唱會實錄
DYEAR=2002
DGENRE=Blues
TTITLE0=城市情人夢/濃情化不開/我願意
TTITLE1=一去不回的人
TTITLE2=別忘記聯絡
TTITLE3=結婚啟事 (品冠)
TTITLE4=刀劍如夢
TTITLE5=我該用什麼樣的心來對你
TTITLE6=你怎麼捨得我難過
TTITLE7=那麼愛你為什麼
EXTD=
EXTT0=
EXTT1=
EXTT2=
EXTT3=
EXTT4=
EXTT5=
EXTT6=
EXTT7=
PLAYORDER=
